# xmcd
#
# Track frame offsets:
# 150
# 14574
# 30615
# 54115
# 73898
# 86398
# 94242
# 104280
# 129347
# 143397
# 167969
# 190177
#
# Disc length: 2872 seconds
#
# Revision: 0
# Processed by: cddbd v1.5.2PL0 Copyright (c) Steve Scherf et al.
# Submitted via: Axialis_AX_CDPlayer 2.6
#
DISCID=980b360c
DTITLE=Claude Debussy - Études, Images, Children's corner 1
DYEAR=1900
DGENRE=
TTITLE0="Études" Libro I - 1. Pour les "cinq doigts" (d'après Monsieur Czemy
TTITLE0=) \n
TTITLE1="Études" Libro I - 2. Pour les Tierces
TTITLE2="Études" Libro I - 3. Pour les Quartes
TTITLE3="Études" Libro I - 4. Pour les Sixtes
TTITLE4="Études" Libro I - 5. Pour les Octaves
TTITLE5="Études" Libro I - 6. Pour les huit doigts
TTITLE6="Études" Libro II - 7. Pour les Degrés chromatiques
TTITLE7="Études" Libro II - 8. Pour les Agréments
TTITLE8="Études" Libro II - 9. Pour les Notes répétées
TTITLE9="Études" Libro II - 10. Pour les Sonorités opposées
TTITLE10="Études" Libro II - 11. Pour les Arpèges composés
TTITLE11="Études" Libro II - 12. Pour les Accords
EXTD=Jean-Yves Thibaudet, piano
EXTT0=
EXTT1=
EXTT2=
EXTT3=
EXTT4=
EXTT5=
EXTT6=
EXTT7=
EXTT8=
EXTT9=
EXTT10=
EXTT11=
PLAYORDER=
